HIERARCHY
ROOT Hips
{
	OFFSET 0.000000 0.000000 0.000000
	CHANNELS 6 Xposition Yposition Zposition Zrotation Yrotation Xrotation 
	JOINT LHipJoint
	{
		OFFSET 0.000000 0.000000 0.000000
		CHANNELS 3 Zrotation Yrotation Xrotation
		JOINT LeftUpLeg
		{
			OFFSET 1.363060 -1.794630 0.839290
			CHANNELS 3 Zrotation Yrotation Xrotation
			JOINT LeftLeg
			{
				OFFSET 2.448110 -6.726130 0.000000
				CHANNELS 3 Zrotation Yrotation Xrotation
				JOINT LeftFoot
				{
					OFFSET 2.562200 -7.039590 0.000000
					CHANNELS 3 Zrotation Yrotation Xrotation
					JOINT LeftToeBase
					{
						OFFSET 0.157640 -0.433110 2.322550
						CHANNELS 3 Zrotation Yrotation Xrotation
						End Site
						{
							OFFSET 0.000000 0.000000 0.000000
						}
					}
				}
			}
		}
	}
	JOINT RHipJoint
	{
		OFFSET 0.000000 0.000000 0.000000
		CHANNELS 3 Zrotation Yrotation Xrotation
		JOINT RightUpLeg
		{
			OFFSET -1.305520 -1.794630 0.839290
			CHANNELS 3 Zrotation Yrotation Xrotation
			JOINT RightLeg
			{
				OFFSET -2.542530 -6.985550 0.000000
				CHANNELS 3 Zrotation Yrotation Xrotation
				JOINT RightFoot
				{
					OFFSET -2.568260 -7.056230 0.000000
					CHANNELS 3 Zrotation Yrotation Xrotation
					JOINT RightToeBase
					{
						OFFSET -0.164730 -0.452590 2.363150
						CHANNELS 3 Zrotation Yrotation Xrotation
						End Site
						{
							OFFSET 0.000000 0.000000 0.000000
						}
					}
				}
			}
		}
	}
	JOINT LowerBack
	{
		OFFSET 0.000000 0.000000 0.000000
		CHANNELS 3 Zrotation Yrotation Xrotation
		JOINT Spine
		{
			OFFSET 0.028270 2.035590 -0.193380
			CHANNELS 3 Zrotation Yrotation Xrotation
			JOINT Spine1
			{
				OFFSET 0.056720 2.048850 -0.042750
				CHANNELS 3 Zrotation Yrotation Xrotation
				JOINT Neck
				{
					OFFSET 0.000000 0.000000 0.000000
					CHANNELS 3 Zrotation Yrotation Xrotation
					JOINT Neck1
					{
						OFFSET -0.054170 1.746240 0.172020
						CHANNELS 3 Zrotation Yrotation Xrotation
						JOINT Head
						{
							OFFSET 0.104070 1.761360 -0.123970
							CHANNELS 3 Zrotation Yrotation Xrotation
							End Site
							{
								OFFSET 0.000000 0.000000 0.000000
							}
						}
					}
				}
				JOINT LeftShoulder
				{
					OFFSET 0.000000 0.000000 0.000000
					CHANNELS 3 Zrotation Yrotation Xrotation
					JOINT LeftArm
					{
						OFFSET 3.362410 1.200890 -0.311210
						CHANNELS 3 Zrotation Yrotation Xrotation
						JOINT LeftForeArm
						{
							OFFSET 4.983000 -0.000000 -0.000000
							CHANNELS 3 Zrotation Yrotation Xrotation
							JOINT LeftHand
							{
								OFFSET 3.483560 -0.000000 -0.000000
								CHANNELS 3 Zrotation Yrotation Xrotation
								JOINT LeftFingerBase
								{
									OFFSET 0.000000 0.000000 0.000000
									CHANNELS 3 Zrotation Yrotation Xrotation
									JOINT LeftHandIndex1
									{
										OFFSET 0.715260 -0.000000 -0.000000
										CHANNELS 3 Zrotation Yrotation Xrotation
										End Site
										{
											OFFSET 0.000000 0.000000 0.000000
										}
									}
								}
								JOINT LThumb
								{
									OFFSET 0.000000 0.000000 0.000000
									CHANNELS 3 Zrotation Yrotation Xrotation
									End Site
									{
										OFFSET 0.000000 0.000000 0.000000
									}
								}
							}
						}
					}
				}
				JOINT RightShoulder
				{
					OFFSET 0.000000 0.000000 0.000000
					CHANNELS 3 Zrotation Yrotation Xrotation
					JOINT RightArm
					{
						OFFSET -3.136600 1.374050 -0.404650
						CHANNELS 3 Zrotation Yrotation Xrotation
						JOINT RightForeArm
						{
							OFFSET -5.241900 -0.000000 -0.000000
							CHANNELS 3 Zrotation Yrotation Xrotation
							JOINT RightHand
							{
								OFFSET -3.444170 -0.000000 -0.000000
								CHANNELS 3 Zrotation Yrotation Xrotation
								JOINT RightFingerBase
								{
									OFFSET 0.000000 0.000000 0.000000
									CHANNELS 3 Zrotation Yrotation Xrotation
									JOINT RightHandIndex1
									{
										OFFSET -0.622530 -0.000000 -0.000000
										CHANNELS 3 Zrotation Yrotation Xrotation
										End Site
										{
											OFFSET 0.000000 0.000000 0.000000
										}
									}
								}
								JOINT RThumb
								{
									OFFSET 0.000000 0.000000 0.000000
									CHANNELS 3 Zrotation Yrotation Xrotation
									End Site
									{
										OFFSET 0.000000 0.000000 0.000000
									}
								}
							}
						}
					}
				}
			}
		}
	}
}
MOTION
Frames: 5
Frame Time: 0.008333
0.635689 17.694625 -14.248389 -2.189358 -0.841943 4.737637 -1.279366 0.127869 0.976444 -15.501562 4.459423 -15.060225 0.043570 6.947627 19.345215 -0.237634 2.882507 -2.715765 0.006700 -0.528600 -1.452500 -0.844175 -0.500411 0.021484 20.113056 1.764015 -11.694937 -0.682512 -7.504349 21.473093 -0.087429 -1.502644 -6.688335 -0.260100 -3.280900 9.061700 1.350140 -0.632062 -2.641041 1.584274 -0.956713 -2.347915 1.457647 -0.843029 6.922156 -3.296051 -0.657103 -10.686473 2.577741 -0.020387 29.948745 0.396800 0.420200 11.744300 9.327416 5.479749 0.317314 -97.071061 -8.140221 28.485812 7.652064 -17.136645 -1.204533 -0.069190 -0.691647 -1.476620 24.487304 -3.108274 -1.073400 -7.125000 0.000000 0.000000 -1.545100 27.397400 0.661000 -8.328039 -4.474241 -0.028140 94.753530 8.060667 13.057182 -9.858702 21.406620 -2.134668 0.675873 0.917250 31.709493 -20.492717 -24.541325 9.266400 7.125000 0.000000 0.000000 10.152100 -56.938000 -2.991000
0.632704 17.694322 -14.251678 -2.195426 -0.787311 4.740344 -1.278295 0.125711 0.972968 -15.482070 4.424551 -15.083366 0.046343 6.957919 19.372873 -0.232838 2.859397 -2.711778 0.006850 -0.534392 -1.468479 -0.845038 -0.499097 0.020597 20.131506 1.738027 -11.718395 -0.684607 -7.509348 21.487059 -0.085829 -1.514378 -6.698573 -0.260948 -3.286336 9.076910 1.350323 -0.646022 -2.615153 1.587069 -0.974409 -2.344678 1.462432 -0.852387 6.924181 -3.288660 -0.656491 -10.708013 2.569675 -0.016407 29.936269 0.391851 0.421949 11.746243 9.329876 5.476144 0.316051 -97.070050 -8.181435 28.626237 7.712765 -17.244432 -1.224554 -0.063434 -0.692407 -1.929091 24.465388 -3.080322 -1.059507 -7.125000 0.000000 0.000000 -1.562213 27.428689 0.667185 -8.330526 -4.469507 -0.031690 94.741840 8.140088 13.279625 -9.925535 21.509678 -2.161238 0.673745 0.917208 31.491667 -20.529034 -24.514106 9.275593 7.125000 0.000000 0.000000 10.097067 -56.916969 -2.969352
0.629820 17.693917 -14.254966 -2.199254 -0.735403 4.740630 -1.277188 0.123847 0.969862 -15.465605 4.388607 -15.101882 0.048811 6.967348 19.397864 -0.229035 2.841113 -2.708377 0.007000 -0.540582 -1.485549 -0.845776 -0.497853 0.019821 20.146280 1.710851 -11.742660 -0.687416 -7.516096 21.506086 -0.085529 -1.518485 -6.709609 -0.263292 -3.301351 9.118764 1.349254 -0.658452 -2.581531 1.588749 -0.989667 -2.342157 1.464773 -0.860332 6.919593 -3.285406 -0.657428 -10.728338 2.568592 -0.016614 29.924932 0.390306 0.421901 11.748995 9.332052 5.471860 0.314422 -97.060466 -8.218556 28.795267 7.779634 -17.362599 -1.246948 -0.056912 -0.693099 -2.430450 24.428861 -3.040431 -1.039577 -7.125000 0.000000 0.000000 -1.590817 27.473025 0.677771 -8.333849 -4.464558 -0.035508 94.730566 8.208379 13.527040 -10.001244 21.626714 -2.191630 0.670596 0.917609 31.250956 -20.544655 -24.493671 9.276603 7.125000 0.000000 0.000000 10.067705 -56.897810 -2.955904
0.626986 17.693412 -14.258909 -2.201910 -0.693182 4.739747 -1.275923 0.121896 0.966643 -15.450774 4.350525 -15.119101 0.051279 6.976391 19.422081 -0.227468 2.833330 -2.706430 0.007100 -0.543934 -1.494656 -0.846419 -0.496311 0.018903 20.158591 1.691863 -11.770544 -0.691090 -7.525007 21.531150 -0.085765 -1.519397 -6.717772 -0.265146 -3.312576 9.150183 1.346866 -0.663870 -2.546808 1.588663 -0.995207 -2.339446 1.463251 -0.863028 6.912367 -3.275572 -0.659083 -10.735008 2.572783 -0.022382 29.907941 0.388500 0.420906 11.745269 9.334985 5.466906 0.312951 -97.040442 -8.253702 29.002846 7.857995 -17.501998 -1.273327 -0.047471 -0.694124 -2.964636 24.383150 -2.880779 -0.964537 -7.125000 0.000000 0.000000 -1.628649 27.649584 0.687122 -8.337690 -4.459706 -0.039257 94.722546 8.264651 13.794905 -10.093981 21.770267 -2.228825 0.664750 0.920530 30.989388 -20.489074 -24.551466 9.267795 7.125000 0.000000 0.000000 10.155346 -56.943028 -2.993232
0.624154 17.692906 -14.263158 -2.201817 -0.655673 4.739626 -1.274770 0.119622 0.963308 -15.439119 4.314181 -15.139721 0.053831 6.985753 19.446855 -0.226535 2.828880 -2.701924 0.007199 -0.548968 -1.508414 -0.847114 -0.494528 0.017986 20.167876 1.679081 -11.802120 -0.695054 -7.535139 21.559113 -0.085198 -1.524540 -6.723292 -0.265599 -3.315591 9.158674 1.338309 -0.666867 -2.510395 1.588513 -0.997356 -2.337198 1.466392 -0.864415 6.902441 -3.273440 -0.661319 -10.740162 2.585164 -0.030200 29.891606 0.391277 0.418913 11.741419 9.338044 5.461421 0.311370 -97.021541 -8.289062 29.210011 7.941411 -17.650300 -1.301728 -0.036867 -0.695112 -3.490729 24.334325 -2.665362 -0.864282 -7.125000 0.000000 0.000000 -1.670450 27.887417 0.695350 -8.341821 -4.454908 -0.043251 94.712560 8.314833 14.078310 -10.194451 21.925205 -2.269239 0.658922 0.923370 30.722257 -20.437218 -24.608842 9.260630 7.125000 0.000000 0.000000 10.238541 -56.988601 -3.029344
